<svg xmlns="http://www.w3.org/2000/svg" width="45.421" height="42.266" viewBox="0 0 45.421 42.266">
  <g id="click" transform="translate(0 -17.784)">
    <path id="Path_24040" data-name="Path 24040" d="M313.05,288.566l-3.694-3.7,3.249-1.921a1.216,1.216,0,0,0-.3-2.219l-16.7-4.487a1.215,1.215,0,0,0-1.488,1.487l4.485,16.706a1.215,1.215,0,0,0,2.217.3l1.923-3.25,3.693,3.695a1.213,1.213,0,0,0,1.717,0l4.9-4.9A1.216,1.216,0,0,0,313.05,288.566Z" transform="translate(-267.984 -235.492)" fill="#12171c"/>
    <path id="Path_24041" data-name="Path 24041" d="M97.863,224.034a1.331,1.331,0,0,0-1.33-1.331H92.557a1.331,1.331,0,0,0,0,2.661h3.976A1.331,1.331,0,0,0,97.863,224.034Z" transform="translate(-83.134 -186.74)" fill="#12171c"/>
    <path id="Path_24042" data-name="Path 24042" d="M138.126,297.636l-2.808,2.815a1.33,1.33,0,1,0,1.883,1.88l2.808-2.815a1.33,1.33,0,1,0-1.883-1.88Z" transform="translate(-122.959 -254.669)" fill="#12171c"/>
    <path id="Path_24043" data-name="Path 24043" d="M28.018,37.294a5.284,5.284,0,0,0-.488-2.222l9.421-7.689a5.319,5.319,0,1,0-1.683-2.062l-9.422,7.69a5.3,5.3,0,0,0-6.285,0l-9.422-7.69a5.322,5.322,0,1,0-1.683,2.062l9.421,7.689a5.314,5.314,0,1,0,10.14,2.222Z" fill="#12171c"/>
    <path id="Path_24044" data-name="Path 24044" d="M242.257,327.624a1.33,1.33,0,0,0-1.33,1.331v3.976a1.33,1.33,0,1,0,2.661,0v-3.976A1.33,1.33,0,0,0,242.257,327.624Z" transform="translate(-219.553 -282.353)" fill="#12171c"/>
  </g>
</svg>
