<svg id="download" xmlns="http://www.w3.org/2000/svg" width="44.065" height="44.065" viewBox="0 0 44.065 44.065">
  <path id="Path_24065" data-name="Path 24065" d="M78.842,428.161v4.745a1.291,1.291,0,0,1-1.291,1.291H42.111a1.291,1.291,0,0,1-1.291-1.291v-4.745a1.291,1.291,0,1,1,2.582,0v3.454H76.26v-3.454a1.291,1.291,0,0,1,2.582,0Z" transform="translate(-37.307 -390.131)" fill="#12171c"/>
  <g id="Group_1471" data-name="Group 1471" transform="translate(12.048 9.944)">
    <path id="Path_24066" data-name="Path 24066" d="M160.712,135.756l-9.184,10.766a1.291,1.291,0,0,1-2.128,0l-9.182-10.764a1.292,1.292,0,0,1,1.064-2.023h4.208v-16.9a1.29,1.29,0,0,1,1.29-1.29h7.369a1.291,1.291,0,0,1,1.291,1.291v16.9h4.209A1.292,1.292,0,0,1,160.712,135.756Z" transform="translate(-139.989 -115.54)" fill="#12171c"/>
  </g>
  <path id="Path_24067" data-name="Path 24067" d="M44.065,18.3A7.268,7.268,0,0,1,36.8,25.566H30.081V11.235A3.855,3.855,0,0,0,28.951,8.5h0l0,0a3.846,3.846,0,0,0-2.739-1.134H18.84a3.876,3.876,0,0,0-3.872,3.872V25.566h-7.7A7.268,7.268,0,0,1,0,18.3a7.438,7.438,0,0,1,.05-.859,7.274,7.274,0,0,1,4.827-6,6.134,6.134,0,0,1,8.767-5.94,9.155,9.155,0,0,1,16.779,0,6.132,6.132,0,0,1,8.767,5.94,7.275,7.275,0,0,1,4.826,6,7.439,7.439,0,0,1,.05.859Z" fill="#12171c"/>
</svg>
