<svg xmlns="http://www.w3.org/2000/svg" width="43.094" height="44.961" viewBox="0 0 43.094 44.961">
  <g id="folder" transform="translate(-10.63)">
    <g id="Group_1468" data-name="Group 1468" transform="translate(10.63)">
      <path id="Path_24054" data-name="Path 24054" d="M35.365,4.391H10.63V1.317A1.318,1.318,0,0,1,11.947,0H31.864a1.294,1.294,0,0,1,.286.032,1.32,1.32,0,0,1,.827.582Z" transform="translate(-10.63)" fill="#12171c"/>
    </g>
    <g id="Group_1469" data-name="Group 1469" transform="translate(10.63 7.025)">
      <path id="Path_24055" data-name="Path 24055" d="M53.724,81.317v26.461a1.317,1.317,0,0,1-1.317,1.317h-4.19a16.937,16.937,0,1,0-32.08,0H11.947a1.317,1.317,0,0,1-1.317-1.317V80H52.407A1.318,1.318,0,0,1,53.724,81.317Z" transform="translate(-10.63 -80)" fill="#12171c"/>
    </g>
    <g id="Group_1470" data-name="Group 1470" transform="translate(17.874 16.355)">
      <path id="Path_24056" data-name="Path 24056" d="M221.628,421.827a.755.755,0,0,0,1.052,0c1.614-1.6,2.455-6.194,2.733-8.447H218.9C219.172,415.632,220.014,420.23,221.628,421.827Z" transform="translate(-207.85 -393.435)" fill="#12171c"/>
      <path id="Path_24057" data-name="Path 24057" d="M300.761,419.252a16.555,16.555,0,0,1-.876,2.263,14.337,14.337,0,0,0,9.293-8.135h-7.236A32.6,32.6,0,0,1,300.761,419.252Z" transform="translate(-281.728 -393.435)" fill="#12171c"/>
      <path id="Path_24058" data-name="Path 24058" d="M113.521,413.38h-7.236a14.337,14.337,0,0,0,9.293,8.135,16.555,16.555,0,0,1-.876-2.263A32.6,32.6,0,0,1,113.521,413.38Z" transform="translate(-105.129 -393.435)" fill="#12171c"/>
      <path id="Path_24059" data-name="Path 24059" d="M106.195,200.394h7.241a27.164,27.164,0,0,1,2.06-8.154A14.336,14.336,0,0,0,106.195,200.394Z" transform="translate(-105.047 -191.714)" fill="#12171c"/>
      <path id="Path_24060" data-name="Path 24060" d="M222.653,186.463a.755.755,0,0,0-1.052,0c-1.612,1.595-2.455,6.187-2.735,8.466h6.523C225.11,192.669,224.269,188.062,222.653,186.463Z" transform="translate(-207.824 -186.25)" fill="#12171c"/>
      <path id="Path_24061" data-name="Path 24061" d="M309.186,200.384a14.337,14.337,0,0,0-9.3-8.154,27.119,27.119,0,0,1,2.059,8.154Z" transform="translate(-281.728 -191.705)" fill="#12171c"/>
      <path id="Path_24062" data-name="Path 24062" d="M101.286,315.09H93.437a14.413,14.413,0,0,0,0,6h7.846A51.471,51.471,0,0,1,101.286,315.09Z" transform="translate(-93.124 -303.776)" fill="#12171c"/>
      <path id="Path_24063" data-name="Path 24063" d="M333.765,315.09h-7.849a51.464,51.464,0,0,1,0,6h7.846A14.416,14.416,0,0,0,333.765,315.09Z" transform="translate(-305.473 -303.776)" fill="#12171c"/>
      <path id="Path_24064" data-name="Path 24064" d="M215.175,315.09a49.483,49.483,0,0,0,0,6h7a49.486,49.486,0,0,0,0-6Z" transform="translate(-204.375 -303.776)" fill="#12171c"/>
    </g>
  </g>
</svg>
