<svg xmlns="http://www.w3.org/2000/svg" width="44.711" height="44.711" viewBox="0 0 44.711 44.711">
  <g id="gear" transform="translate(0)">
    <path id="Path_24048" data-name="Path 24048" d="M22.9,17.99l-1.538-1.905,2.439-.269a1.31,1.31,0,0,0,1.169-1.3V10.353a1.31,1.31,0,0,0-1.169-1.3l-2.484-.275,1.557-1.947a1.3,1.3,0,0,0-.1-1.741L19.812,2.154a1.317,1.317,0,0,0-1.749-.092L16.15,3.593l-.271-2.43A1.311,1.311,0,0,0,14.574,0H10.4A1.31,1.31,0,0,0,9.09,1.163L8.815,3.638,6.86,2.087a1.317,1.317,0,0,0-1.749.1L2.163,5.136A1.305,1.305,0,0,0,2.07,6.879L3.608,8.784l-2.44.269A1.31,1.31,0,0,0,0,10.353v4.162a1.31,1.31,0,0,0,1.169,1.3l2.484.275L2.1,18.037a1.3,1.3,0,0,0,.1,1.741l2.961,2.937a1.317,1.317,0,0,0,1.749.092L8.82,21.275l.271,2.43A1.311,1.311,0,0,0,10.4,24.869h4.178a1.312,1.312,0,0,0,1.305-1.163l.275-2.475,1.955,1.551a1.317,1.317,0,0,0,1.749-.1l2.948-2.95A1.3,1.3,0,0,0,22.9,17.99Zm-10.415-1.6a3.957,3.957,0,1,1,3.973-3.958,3.97,3.97,0,0,1-3.973,3.958Z" transform="translate(0)" fill="#12171c"/>
    <path id="Path_24049" data-name="Path 24049" d="M253.559,244.1l-2.112-1.146,2.1-1.161a1.306,1.306,0,0,0,.576-1.648l-1.592-3.8a1.315,1.315,0,0,0-1.58-.752l-2.351.685.671-2.346a1.308,1.308,0,0,0-.766-1.57l-3.828-1.558a1.314,1.314,0,0,0-1.65.585l-1.15,2.1-1.165-2.1a1.316,1.316,0,0,0-1.655-.574l-3.817,1.585a1.306,1.306,0,0,0-.755,1.575l.687,2.342-2.356-.669a1.313,1.313,0,0,0-1.575.763l-1.565,3.813a1.3,1.3,0,0,0,.587,1.644l2.112,1.146-2.1,1.16a1.306,1.306,0,0,0-.576,1.648l1.592,3.8a1.316,1.316,0,0,0,1.581.752l2.351-.685-.671,2.347a1.305,1.305,0,0,0,.766,1.569l3.828,1.559a1.316,1.316,0,0,0,1.65-.585l1.15-2.1,1.165,2.1a1.314,1.314,0,0,0,1.654.574l3.818-1.585a1.306,1.306,0,0,0,.755-1.574l-.688-2.342,2.357.669a1.315,1.315,0,0,0,1.575-.763l1.565-3.813a1.306,1.306,0,0,0-.587-1.644Zm-10.127,2.515a3.933,3.933,0,1,1,2.123-5.14A3.956,3.956,0,0,1,243.432,246.61Z" transform="translate(-209.534 -210.554)" fill="#12171c"/>
    <path id="Path_24050" data-name="Path 24050" d="M318.54,52.06a1.31,1.31,0,0,0,1.857-1.85l-.239-.238a4.576,4.576,0,0,1,3.557,6.149,1.312,1.312,0,0,0,2.453.933,7.193,7.193,0,0,0-5.984-9.715l.153-.205a1.311,1.311,0,0,0-2.107-1.561l-1.97,2.638-.005.008a1.3,1.3,0,0,0,.131,1.7Z" transform="translate(-288.408 -41.112)" fill="#12171c"/>
    <path id="Path_24051" data-name="Path 24051" d="M86.521,317.664a1.311,1.311,0,1,0-1.857,1.85l.239.238a4.576,4.576,0,0,1-3.558-6.149,1.312,1.312,0,0,0-2.454-.933,7.192,7.192,0,0,0,5.984,9.714l-.154.206a1.311,1.311,0,0,0,2.107,1.561l1.97-2.638a1.306,1.306,0,0,0-.125-1.705Z" transform="translate(-71.57 -284.598)" fill="#12171c"/>
  </g>
</svg>
