<svg xmlns="http://www.w3.org/2000/svg" width="45.661" height="47.248" viewBox="0 0 45.661 47.248">
  <g id="statistics" transform="translate(-8.599)">
    <path id="Path_24052" data-name="Path 24052" d="M52.876,112.559H51.492V82.839a.917.917,0,0,0-.917-.917H48.029a.917.917,0,0,0-.917.917v29.72H44.343V94a.917.917,0,0,0-.917-.917H40.881a.917.917,0,0,0-.917.917v18.554H37.195v-10.8a.917.917,0,0,0-.917-.917H33.732a.917.917,0,0,0-.917.917v10.8H30.046V93.912a.917.917,0,0,0-.917-.917H26.583a.917.917,0,0,0-.917.917v18.646H22.9v-10.8a.917.917,0,0,0-.917-.917H19.435a.917.917,0,0,0-.917.917v10.8H15.749V108.82a.917.917,0,0,0-.917-.917H11.368V76.384a1.384,1.384,0,0,0-2.768,0v37.559a1.384,1.384,0,0,0,1.384,1.384H52.876a1.384,1.384,0,1,0,0-2.768Z" transform="translate(0 -68.079)" fill="#12171c"/>
    <path id="Path_24053" data-name="Path 24053" d="M70.439,20.286l8.427-8.427,8.06,6.412a1.384,1.384,0,0,0,1.841-.1l13.44-13.44V5.912a1.384,1.384,0,0,0,2.768,0V1.384A1.386,1.386,0,0,0,103.591,0H99.063a1.384,1.384,0,0,0,0,2.768h1.186L87.682,15.335l-8.06-6.412a1.384,1.384,0,0,0-1.841.1l-9.3,9.3a1.384,1.384,0,1,0,1.958,1.958Z" transform="translate(-53.988)" fill="#12171c"/>
  </g>
</svg>
